<svg height="512" viewBox="0 0 128 128" width="512" xmlns="http://www.w3.org/2000/svg"><g><g><path d="m64 67.036-62.25-24.625 62.25-24.625 62.25 24.625z" fill="#4d5680"/><path d="m23.498 42.411 40.502-16.022 40.502 16.022-40.502 16.022z" fill="#80a3ff"/><path d="m64 67.036-34.664-13.712v34.954s7.289 10.008 34.664 10.008 34.664-10.008 34.664-10.008v-34.954z" fill="#f3f5f9"/><circle cx="112.92" cy="102.027" fill="#f3f5f9" r="8.187" transform="matrix(.228 -.974 .974 .228 -12.13 188.763)"/><path d="m108.92 94.888a8.164 8.164 0 0 1 8 0v-48.788l-8 3.164z" fill="#80ecc6"/></g><g><path d="m126.894 40.784-62.25-24.625a1.757 1.757 0 0 0 -1.288 0l-62.25 24.625a1.75 1.75 0 0 0 0 3.255l26.48 10.474v33.765a1.761 1.761 0 0 0 .335 1.031c.105.144 2.65 3.558 9.808 6.469a1.734 1.734 0 0 0 .658.13 1.751 1.751 0 0 0 .66-3.372 23.1 23.1 0 0 1 -7.961-4.913v-31.723l32.27 12.766a1.761 1.761 0 0 0 1.288 0l32.27-12.766v31.719c-1.704 1.754-10.067 8.917-32.914 8.917a93.293 93.293 0 0 1 -10.609-.573 1.75 1.75 0 1 0 -.4 3.477 96.864 96.864 0 0 0 11.01.6c27.944 0 35.76-10.289 36.079-10.727a1.761 1.761 0 0 0 .335-1.031v-33.769l6.756-2.672v42.1a9.937 9.937 0 1 0 11.5 0v-46.649l8.224-3.253a1.75 1.75 0 0 0 0-3.255zm-13.974 67.68a6.437 6.437 0 1 1 6.437-6.437 6.443 6.443 0 0 1 -6.437 6.437zm2.25-59.788v43.682a9.614 9.614 0 0 0 -4.5 0v-41.9l1.461-.578zm-17.149 3.024-34.021 13.454-34.02-13.454-23.473-9.289 57.493-22.743 57.493 22.743z"/><path d="m63.356 24.762-40.5 16.022a1.75 1.75 0 0 0 0 3.255l40.5 16.021a1.747 1.747 0 0 0 1.288 0l13.38-5.292a1.75 1.75 0 0 0 -1.287-3.255l-12.737 5.038-35.745-14.14 35.745-14.14 39.858 15.768a1.75 1.75 0 0 0 1.287-3.255l-40.5-16.022a1.757 1.757 0 0 0 -1.289 0z"/><path d="m92.445 45.3-4.295 1.7a1.75 1.75 0 1 0 1.288 3.254l4.294-1.7a1.75 1.75 0 0 0 -1.287-3.254z"/></g></g></svg>