<svg id="Capa_1" enable-background="new 0 0 511.995 511.995" height="512" viewBox="0 0 511.995 511.995" width="512" xmlns="http://www.w3.org/2000/svg"><g><path d="m454.558 348.609h42.322v82.925h-42.322z" fill="#ffe177"/><path d="m413.118 263.147v106.505c0 5.491-3.015 10.549-7.861 13.152l-138.605 74.677c-6.655 3.587-14.654 3.587-21.309 0l-93.563-50.405-45.041-24.272c-4.846-2.603-7.861-7.66-7.861-13.152v-106.505l157.12 94.854z" fill="#456b93"/><path d="m252.38 365.818-153.503-92.67v31.742 64.763c0 5.491 3.015 10.549 7.861 13.152l45.041 24.272v-42.129c0-12.356 13.496-19.972 24.073-13.587l76.527 46.2c2.225 1.343 5.011 1.343 7.236 0l153.503-92.67v-31.742l-153.503 92.67c-2.225 1.342-5.01 1.342-7.235-.001z" fill="#3b4f66"/><path d="m508.417 215.629-248.59 150.06c-2.36 1.42-5.3 1.42-7.66 0l-248.589-150.06c-4.77-2.88-4.77-9.8 0-12.68l15.79-9.53 232.8-140.53c2.36-1.42 5.3-1.42 7.66 0l232.8 140.53 15.79 9.53c4.769 2.88 4.769 9.8-.001 12.68z" fill="#618baa"/><path d="m508.417 215.629-248.59 150.06c-2.36 1.42-5.3 1.42-7.66 0l-248.589-150.06c-4.77-2.88-4.77-9.8 0-12.68l15.79-9.53 236.63 142.84 236.63-142.84 15.79 9.53c4.769 2.88 4.769 9.8-.001 12.68z" fill="#456b93"/><g><g><path d="m475.72 355.58c-4.383 0-7.935-3.552-7.935-7.935v-105.228l-212.722-25.249c-4.352-.516-7.461-4.463-6.944-8.815.517-4.354 4.48-7.463 8.815-6.944l219.722 26.079c3.992.473 7 3.859 7 7.88v112.276c-.001 4.384-3.553 7.936-7.936 7.936z" fill="#d9ecfd"/></g></g><circle cx="475.719" cy="348.609" fill="#fff" r="21.161"/><circle cx="475.719" cy="348.609" fill="#ffc85e" r="21.161"/></g></svg>