<svg id="Capa_1" enable-background="new 0 0 512 512" height="512" viewBox="0 0 512 512" width="512" xmlns="http://www.w3.org/2000/svg"><g><g><g><g><g><g><g><g><g><g><g><g><g><g><g><path d="m34.017 33.973v444.054c0 14.621 11.852 26.473 26.473 26.473h338.027c14.621 0 26.473-11.852 26.473-26.473v-353.777l-116.75-116.75h-247.75c-14.62 0-26.473 11.852-26.473 26.473z" fill="#eaecf0"/><path d="m398.517 504.5c14.621 0 26.473-11.853 26.473-26.473v-353.777l-92.661-92.661v123.466c0 11.039 8.948 19.987 19.987 19.987h20.012v329.458z" fill="#d3d7de"/><path d="m308.24 7.5 116.75 116.75h-96.748c-11.047 0-20.003-8.955-20.003-20.003v-96.747z" fill="#df705d"/></g></g></g></g></g></g></g></g></g></g></g><path d="m474.371 368.318-95.218-85.518c-7.008-6.294-18.161-1.32-18.161 8.099v37.167c-137.634 7.372-169.405 118.401-176.734 169.255-.929 6.443 7.303 9.835 11.226 4.64 34.689-45.921 89.203-73.505 147.682-73.505h17.826v33.478c0 9.42 11.153 14.394 18.161 8.099l95.217-85.518c4.817-4.324 4.817-11.872.001-16.197z" fill="#759ce7"/><path d="m343.166 370.468c-55.73 0-107.844 25.066-142.645 67.165-9.375 22.423-13.993 43.942-16.263 59.689-.929 6.443 7.303 9.835 11.226 4.64 34.689-45.92 89.203-73.505 147.682-73.505h17.826v33.478c0 9.42 11.153 14.394 18.161 8.099l95.217-85.518c4.093-3.676 4.694-9.673 1.83-14.049h-133.034z" fill="#5881cc"/></g></g></g><g><path d="m82.055 82.516h151.009c4.143 0 7.5-3.357 7.5-7.5s-3.357-7.5-7.5-7.5h-151.009c-4.143 0-7.5 3.357-7.5 7.5s3.357 7.5 7.5 7.5z"/><path d="m82.055 131.853h151.009c4.143 0 7.5-3.357 7.5-7.5s-3.357-7.5-7.5-7.5h-151.009c-4.143 0-7.5 3.357-7.5 7.5s3.357 7.5 7.5 7.5z"/><path d="m384.452 222.003c0-4.143-3.357-7.5-7.5-7.5h-294.897c-4.143 0-7.5 3.357-7.5 7.5s3.357 7.5 7.5 7.5h294.897c4.143 0 7.5-3.357 7.5-7.5z"/><path d="m315.74 289.634c0-4.143-3.357-7.5-7.5-7.5h-226.185c-4.143 0-7.5 3.357-7.5 7.5s3.357 7.5 7.5 7.5h226.185c4.143 0 7.5-3.358 7.5-7.5z"/><path d="m82.055 349.766c-4.143 0-7.5 3.357-7.5 7.5s3.357 7.5 7.5 7.5h125.784c4.143 0 7.5-3.357 7.5-7.5s-3.357-7.5-7.5-7.5z"/><path d="m479.384 362.738c-.001 0-.001-.001 0 0l-95.219-85.519c-5.476-4.917-13.053-6.111-19.775-3.112-6.722 2.998-10.897 9.432-10.897 16.792v30.153c-138.074 11.147-169.536 125.788-176.657 175.199-.036.25-.065.5-.088.749h-116.258c-10.462 0-18.973-8.511-18.973-18.973v-444.054c.001-10.462 8.511-18.973 18.973-18.973h240.25v89.247c0 15.165 12.338 27.503 27.503 27.503h89.247v157.947c0 4.143 3.357 7.5 7.5 7.5s7.5-3.357 7.5-7.5v-165.447c0-1.989-.79-3.896-2.196-5.304l-116.75-116.75c-1.407-1.406-3.315-2.196-5.304-2.196h-247.75c-18.732 0-33.972 15.24-33.972 33.973v444.055c0 18.732 15.24 33.972 33.972 33.972h338.027c18.732 0 33.973-15.24 33.973-33.973v-15.484c0-4.143-3.357-7.5-7.5-7.5s-7.5 3.357-7.5 7.5v15.484c0 10.462-8.511 18.973-18.973 18.973h-189.35c15.205-17.45 33.879-31.948 54.59-42.303 24.522-12.26 51.981-18.74 79.408-18.74h10.326v25.978c0 7.36 4.176 13.794 10.897 16.792s14.299 1.804 19.775-3.112l95.219-85.519c3.876-3.482 6.099-8.468 6.099-13.679s-2.221-10.196-6.097-13.679zm-163.644-258.491v-78.641l91.144 91.144h-78.641c-6.894 0-12.503-5.608-12.503-12.503zm153.619 274.69-95.218 85.518c-1.423 1.277-2.894.908-3.642.573-.75-.334-2.008-1.181-2.008-3.093v-33.478c0-4.143-3.357-7.5-7.5-7.5h-17.826c-29.743 0-59.521 7.028-86.115 20.324-25 12.498-47.262 30.562-64.647 52.415 4.232-25.939 14.166-61.632 37.376-92.831 29.951-40.263 74.232-62.236 131.614-65.31 3.98-.213 7.099-3.503 7.099-7.489v-37.167c0-1.912 1.258-2.759 2.008-3.093.35-.156.857-.32 1.444-.32.669 0 1.44.213 2.197.894l95.217 85.517c.979.879 1.124 1.956 1.124 2.521s-.145 1.641-1.123 2.519z"/></g></g></svg>